<?xml version="1.0" standalone="no"?><!DOCTYPE svg PUBLIC "-//W3C//DTD SVG 1.1//EN" "http://www.w3.org/Graphics/SVG/1.1/DTD/svg11.dtd"><svg t="1528439621892" class="icon" style="" viewBox="0 0 1024 1024" version="1.1" xmlns="http://www.w3.org/2000/svg" p-id="3161" xmlns:xlink="http://www.w3.org/1999/xlink" width="32" height="32"><defs><style type="text/css"></style></defs><path d="M640 64 896 320 640 320Z" p-id="3162" fill="#A9B4BB"></path><path d="M896 768c0 35.328-28.608 64-64 64L256 832 256 128c0-35.328 28.608-64 64-64l256 0 0 320 320 0L896 768z" p-id="3163" fill="#A9B4BB"></path><path d="M768 896c0 35.328-28.608 64-64 64L192 960c-35.392 0-64-28.672-64-64L128 256c0-35.328 28.608-64 64-64l0 704L768 896z" p-id="3164" fill="#A9B4BB"></path></svg>