<?xml version="1.0" standalone="no"?><!DOCTYPE svg PUBLIC "-//W3C//DTD SVG 1.1//EN" "http://www.w3.org/Graphics/SVG/1.1/DTD/svg11.dtd"><svg t="1528437993792" class="icon" style="" viewBox="0 0 1024 1024" version="1.1" xmlns="http://www.w3.org/2000/svg" p-id="7593" xmlns:xlink="http://www.w3.org/1999/xlink" width="32" height="32"><defs><style type="text/css"></style></defs><path d="M925.55776 731.0592c-13.952 0-25.26208 11.20768-25.41568 25.1648l0 155.89888c0 35.25632-1.77664 30.63808-36.98176 30.63808L152.6272 942.76096c-35.20512 0-48.44544 4.61312-48.44544-30.63808L104.18176 129.38752c0-35.26144 13.24032-34.44736 48.44544-34.44736l710.53824 0c35.20512 0 36.98176-0.81408 36.98176 34.44736l0 152.0896 0.3584 0c1.97632 12.07808 12.43136 21.30944 25.05728 21.30944 12.64128 0 23.1424-9.23136 25.1136-21.30944l0.3072 0 0-177.3056c0-35.20512-28.50816-63.76448-63.72352-63.76448L117.06368 40.40704c-35.20512 0-63.7184 28.55936-63.7184 63.76448L53.34528 933.4784c0 35.25632 28.50816 63.8208 63.7184 63.8208l770.19136 0c35.21536 0 63.72352-28.56448 63.72352-63.8208L950.97856 756.224C950.82496 742.272 939.51488 731.0592 925.55776 731.0592L925.55776 731.0592zM1004.34944 507.59168c-1.26976-2.53952-2.944-4.92544-5.07392-7.10656-1.21344-1.21344-2.5344-2.28352-3.95264-3.24608l-246.5536-246.7072c-9.23136-9.23136-24.7552-8.62208-34.65216 1.32096-9.93792 9.93792-10.55744 25.46176-1.31584 34.65216l206.01344 206.16704L405.01248 492.672c-14.0032 0-25.41568 11.3664-25.41568 25.4208 0 14.04928 11.41248 25.46688 25.41568 25.46688l515.27168 0-207.48288 207.59552c-9.23648 9.22624-8.6272 24.75008 1.31584 34.69312 9.89696 9.94816 25.4208 10.50624 34.65216 1.32096l246.5536-246.75328c1.41824-0.91648 2.7392-2.02752 3.95264-3.24608 2.12992-2.13504 3.80416-4.56704 5.07392-7.11168 1.72544-3.14368 2.6368-6.69184 2.73408-10.29632l0-1.82272C1006.98624 514.33984 1006.07488 510.78656 1004.34944 507.59168L1004.34944 507.59168z" p-id="7594" fill="#000000"></path></svg>