<?xml version="1.0" standalone="no"?><!DOCTYPE svg PUBLIC "-//W3C//DTD SVG 1.1//EN" "http://www.w3.org/Graphics/SVG/1.1/DTD/svg11.dtd"><svg t="1528438070960" class="icon" style="" viewBox="0 0 1024 1024" version="1.1" xmlns="http://www.w3.org/2000/svg" p-id="8682" xmlns:xlink="http://www.w3.org/1999/xlink" width="32" height="32"><defs><style type="text/css"></style></defs><path d="M182.857143 164.571429h256a18.285714 18.285714 0 0 1 18.285714 18.285714v256a18.285714 18.285714 0 0 1-18.285714 18.285714H182.857143a18.285714 18.285714 0 0 1-18.285714-18.285714V182.857143a18.285714 18.285714 0 0 1 18.285714-18.285714z m336.347428 133.339428l181.028572-181.028571a18.285714 18.285714 0 0 1 25.856 0l181.028571 181.028571a18.285714 18.285714 0 0 1 0 25.892572l-181.028571 181.028571a18.285714 18.285714 0 0 1-25.892572 0l-181.028571-181.028571a18.285714 18.285714 0 0 1 0-25.892572zM182.857143 566.857143h256a18.285714 18.285714 0 0 1 18.285714 18.285714v256a18.285714 18.285714 0 0 1-18.285714 18.285714H182.857143a18.285714 18.285714 0 0 1-18.285714-18.285714v-256a18.285714 18.285714 0 0 1 18.285714-18.285714z m402.285714 0h256a18.285714 18.285714 0 0 1 18.285714 18.285714v256a18.285714 18.285714 0 0 1-18.285714 18.285714h-256a18.285714 18.285714 0 0 1-18.285714-18.285714v-256a18.285714 18.285714 0 0 1 18.285714-18.285714zM201.142857 201.142857v219.428572h219.428572v-219.428572h-219.428572z m356.827429 109.714286l155.172571 155.172571L868.315429 310.857143 713.142857 155.684571 557.970286 310.857143z m-356.827429 292.571428v219.428572h219.428572v-219.428572h-219.428572z m402.285714 0v219.428572h219.428572v-219.428572h-219.428572z" p-id="8683" fill="#000000"></path></svg>